<svg width="140" height="35" viewBox="0 0 140 35" fill="none" xmlns="http://www.w3.org/2000/svg">
<path opacity="0.1" fill-rule="evenodd" clip-rule="evenodd" d="M1 23.3759C1 23.3759 6.41228 22.5829 12.5657 24.488C24.2692 28.1114 24.9368 21.4761 29.2766 18.2767C33.247 15.3496 36.5353 17.1355 40.956 20.7151C44.2165 23.3552 48.9683 27.787 53.8893 27.0735C58.3876 26.4213 61.5765 21.2236 67.8116 19.9017C72.7533 18.854 76.7692 21.7322 82.4596 20.7151C90.1792 19.3354 93.6273 11.2124 99.1445 11.2124C105.954 11.2124 110.748 4.34229 116.943 4.34229C123.101 4.34229 123.937 8.38208 130.673 11.2124C135.823 13.3762 138.301 11.2124 138.301 11.2124V34.3991H1V23.3759Z" fill="url(#paint0_linear_74_1351)"/>
<path d="M1 19.7745C1 19.7745 6.41228 18.9929 12.5657 20.8705C24.2692 24.4414 24.9368 17.9022 29.2766 14.7491C33.247 11.8644 36.5353 13.6244 40.956 17.1522C44.2165 19.7541 48.9683 24.1217 53.8893 23.4186C58.3876 22.7758 61.5765 17.6533 67.8116 16.3505C72.7533 15.318 76.7692 18.1546 82.4596 17.1522C90.1792 15.7924 93.6273 7.78703 99.1445 7.78703C105.954 7.78703 110.748 1 116.943 1C123.101 1 123.428 4.99768 130.164 7.78703C135.314 9.91951 138.301 7.78703 138.301 7.78703" stroke="#1B59F8" stroke-width="2" stroke-linecap="round" stroke-linejoin="round"/>
<defs>
<linearGradient id="paint0_linear_74_1351" x1="25.8138" y1="19.5933" x2="25.8138" y2="34.3991" gradientUnits="userSpaceOnUse">
<stop stop-color="#0062FF"/>
<stop offset="1" stop-color="white" stop-opacity="0.01"/>
</linearGradient>
</defs>
</svg>
